<?xml version="1.0" encoding="utf-8"?>
<!-- Generator: Adobe Illustrator 16.0.0, SVG Export Plug-In . SVG Version: 6.00 Build 0)  -->
<!DOCTYPE svg PUBLIC "-//W3C//DTD SVG 1.1//EN" "http://www.w3.org/Graphics/SVG/1.1/DTD/svg11.dtd">
<svg version="1.1" id="Layer_1" xmlns="http://www.w3.org/2000/svg" xmlns:xlink="http://www.w3.org/1999/xlink" x="0px" y="0px"
	 width="970px" height="300px" viewBox="0 0 970 300" enable-background="new 0 0 970 300" xml:space="preserve">
<g>
	<g>
		<g>
			<circle opacity="0.55" fill="#131519" cx="144.852" cy="150.933" r="97.797"/>
			<g>
				<path fill="#BAD231" d="M144.854,293.994c-78.887,0-143.062-64.177-143.062-143.062c0-78.884,64.175-143.062,143.062-143.062
					c78.884,0,143.06,64.178,143.06,143.062C287.913,229.817,223.738,293.994,144.854,293.994z M144.854,40.286
					c-61.012,0-110.646,49.635-110.646,110.646c0,61.01,49.634,110.645,110.646,110.645c61.01,0,110.644-49.635,110.644-110.645
					C255.498,89.921,205.863,40.286,144.854,40.286z"/>
			</g>
			<path fill="#FFFFFF" d="M200.35,172.914l-10.15-24.362h-3.046l-1.719,11.629l-0.474-0.506l-1.194-22.177v23.237l1.323,1.776
				l-0.811,5.498l-19.795-19.796l4.962-4.398v-1.58l-4.962-4.06v-3.497l-7.104-3.382l0,0l0,0l0,0l-1.077-7.538l1.734-2.332V98.191
				l-1.192,22.177l-0.89,0.95l-0.944-6.604l-7.445-14.889v0.002v-0.002h-2.707h-2.707l-7.445,14.889l-0.944,6.612l-0.901-0.959
				l-1.192-22.177v23.235l1.743,2.344l-1.074,7.525l-7.106,3.382v3.526l-2.463,2.016l-0.002-0.014l-0.722,0.59v0.017l-1.741,1.423
				v1.58l1.741,1.542v0.018l0.722,0.64l0.002-0.015l2.463,2.184v0.03l-15.693,15.694l-4.111,4.103l-0.811-5.484l1.333-1.79v-23.237
				l-1.194,22.177l-0.483,0.515l-1.721-11.638h-3.046l-10.15,24.362l1.17,2.178l0,0l8.644,16.094l7.452,1.236l7.773-1.236
				l4.061-4.059v-6.092l-5.113-5.112h0.009l3.657,3.657l1.447,1.455l0.004-0.004l0.004,0.004l5.148-5.148l13.914-0.044l7.333,6.546
				l0,0l0,0l0,0l0.853-0.762l0,0l6.533-5.833l13.719-0.044l5.288,5.285v6.092l4.061,4.059l7.773,1.236l7.454-1.236l8.642-16.094l0,0
				L200.35,172.914z M111.904,174.482l-6.021-6.019l0.005-0.004l6.021,6.019L111.904,174.482z"/>
			<g>
				<path fill="#DAE47F" d="M144.854,293.994h-0.353v-32.417h0.353c3.761,0,7.556-0.188,11.273-0.563l3.259,32.25
					C154.587,293.746,149.7,293.994,144.854,293.994z M114.75,290.817c-4.871-1.045-9.736-2.356-14.461-3.905l10.088-30.805
					c3.648,1.194,7.405,2.209,11.165,3.015L114.75,290.817z M188.666,287.154l-9.919-30.858c3.659-1.179,7.299-2.562,10.81-4.116
					l13.112,29.645C198.121,283.838,193.407,285.63,188.666,287.154z M73.007,274.667c-4.295-2.497-8.511-5.253-12.529-8.194
					l19.135-26.162c3.11,2.272,6.367,4.404,9.685,6.333L73.007,274.667z M228.596,266.934l-18.993-26.271
					c3.121-2.258,6.154-4.699,9.016-7.264l21.63,24.142C236.551,260.854,232.627,264.014,228.596,266.934z M38.325,246.423
					c-3.323-3.704-6.484-7.621-9.395-11.637l26.249-19.021c2.257,3.112,4.705,6.147,7.279,9.021L38.325,246.423z M260.315,235.41
					l-26.146-19.154c2.275-3.108,4.411-6.367,6.347-9.688l28,16.33C266.016,227.189,263.255,231.401,260.315,235.41z
					 M14.013,208.867c-2.02-4.554-3.816-9.264-5.343-13.995l30.854-9.946c1.174,3.65,2.563,7.288,4.123,10.806L14.013,208.867z
					 M280.791,195.616l-30.798-10.11c1.196-3.646,2.215-7.403,3.026-11.169l31.689,6.829
					C283.658,186.035,282.339,190.897,280.791,195.616z M2.536,165.596c-0.492-4.839-0.744-9.771-0.744-14.663v-0.235h32.416v0.235
					c0,3.797,0.195,7.623,0.576,11.375L2.536,165.596z M287.913,151.4h-32.416v-0.468c0-3.862-0.199-7.758-0.596-11.58l32.241-3.343
					c0.512,4.928,0.771,9.95,0.771,14.923V151.4z M36.642,127.718l-31.705-6.751c1.035-4.865,2.346-9.734,3.895-14.473
					l30.812,10.063C38.451,120.214,37.439,123.969,36.642,127.718z M250.119,116.747c-1.188-3.663-2.583-7.295-4.145-10.793
					l29.604-13.206c2.022,4.539,3.833,9.247,5.372,13.995L250.119,116.747z M49.082,95.473L21.053,79.19
					c2.499-4.298,5.25-8.513,8.181-12.526l26.18,19.112C53.145,88.883,51.016,92.146,49.082,95.473z M234.404,85.931
					c-2.26-3.108-4.714-6.136-7.293-9.003l24.093-21.685c3.33,3.697,6.497,7.609,9.417,11.624L234.404,85.931z M70.924,68.606
					L49.259,44.495c3.704-3.328,7.618-6.495,11.637-9.409l19.036,26.236C76.826,63.577,73.795,66.028,70.924,68.606z
					 M209.928,61.435c-3.119-2.272-6.382-4.397-9.698-6.317l16.242-28.052c4.291,2.483,8.511,5.232,12.543,8.168L209.928,61.435z
					 M99.959,49.768L86.794,20.146c4.55-2.022,9.257-3.825,13.991-5.355l9.978,30.84C107.108,46.814,103.475,48.206,99.959,49.768z
					 M179.13,45.692c-3.651-1.188-7.408-2.196-11.167-2.994l6.732-31.708c4.869,1.034,9.738,2.338,14.472,3.88L179.13,45.692z
					 M133.376,40.872L130.06,8.628c4.882-0.503,9.86-0.758,14.793-0.758l0.115,32.416h-0.115
					C141.023,40.286,137.162,40.483,133.376,40.872z"/>
			</g>
		</g>
		<g>
			<circle opacity="0.55" fill="#131519" cx="485" cy="150.933" r="97.798"/>
			<g opacity="0.55">
				<path fill="#464E54" d="M485,293.994c-78.884,0-143.06-64.177-143.06-143.062C341.94,72.048,406.116,7.871,485,7.871
					c78.885,0,143.062,64.178,143.062,143.062C628.062,229.817,563.885,293.994,485,293.994z M485,40.286
					c-61.01,0-110.646,49.636-110.646,110.646c0,61.01,49.637,110.646,110.646,110.646c61.012,0,110.646-49.637,110.646-110.646
					C595.646,89.922,546.012,40.286,485,40.286z"/>
			</g>
			<g>
				<path fill="#464E54" d="M485,293.994h-0.353v-32.417H485c3.762,0,7.554-0.188,11.271-0.563l3.258,32.25
					C494.731,293.746,489.845,293.994,485,293.994z M454.897,290.817c-4.872-1.045-9.736-2.356-14.461-3.905l10.088-30.805
					c3.648,1.194,7.405,2.209,11.165,3.015L454.897,290.817z M528.809,287.158l-9.916-30.862c3.658-1.174,7.295-2.562,10.809-4.114
					l13.114,29.645C538.261,283.84,533.547,285.634,528.809,287.158z M413.153,274.667c-4.295-2.497-8.511-5.253-12.529-8.194
					l19.135-26.162c3.11,2.272,6.367,4.404,9.685,6.333L413.153,274.667z M568.742,266.934l-18.993-26.269
					c3.119-2.255,6.154-4.698,9.021-7.266l21.627,24.146C576.693,260.863,572.771,264.022,568.742,266.934z M378.47,246.423
					c-3.321-3.706-6.482-7.623-9.393-11.64l26.248-19.018c2.257,3.11,4.705,6.146,7.279,9.019L378.47,246.423z M600.462,235.415
					l-26.146-19.159c2.274-3.104,4.41-6.362,6.346-9.684l28.001,16.331C606.16,227.194,603.399,231.405,600.462,235.415z
					 M354.157,208.867c-2.02-4.557-3.817-9.266-5.343-13.995l30.854-9.946c1.174,3.65,2.563,7.288,4.123,10.806L354.157,208.867z
					 M620.939,195.625l-30.793-10.124c1.195-3.637,2.213-7.395,3.025-11.16l31.689,6.827
					C623.809,186.046,622.488,190.911,620.939,195.625z M342.683,165.596c-0.492-4.839-0.745-9.771-0.745-14.663l0.007-0.438
					l8.351,0.225l24.06-0.023l-0.002,0.236c0,3.797,0.195,7.623,0.576,11.371L342.683,165.596z M628.06,151.404h-32.415l0.002-0.472
					c0-3.862-0.199-7.758-0.596-11.58l32.24-3.343c0.512,4.928,0.771,9.95,0.771,14.923L628.06,151.404z M376.791,127.717
					l-31.705-6.752c1.035-4.863,2.346-9.732,3.895-14.472l30.812,10.064C378.6,120.213,377.588,123.968,376.791,127.717z
					 M590.268,116.747c-1.188-3.663-2.583-7.295-4.145-10.793l29.604-13.206c2.022,4.539,3.832,9.247,5.372,13.995L590.268,116.747z
					 M389.229,95.472l-28.027-16.284c2.497-4.298,5.248-8.512,8.179-12.525l26.18,19.111
					C393.292,88.882,391.163,92.145,389.229,95.472z M574.551,85.931c-2.26-3.107-4.714-6.135-7.293-9.001l24.094-21.686
					c3.329,3.699,6.497,7.61,9.416,11.625L574.551,85.931z M411.071,68.606l-21.665-24.111c3.704-3.328,7.618-6.495,11.636-9.409
					l19.036,26.236C416.973,63.577,413.942,66.028,411.071,68.606z M550.074,61.435c-3.119-2.272-6.382-4.397-9.698-6.317
					l16.242-28.052c4.291,2.483,8.509,5.232,12.543,8.168L550.074,61.435z M440.108,49.768l-13.165-29.621
					c4.55-2.022,9.257-3.825,13.991-5.355l9.978,30.84C447.257,46.814,443.624,48.206,440.108,49.768z M519.278,45.693
					c-3.65-1.188-7.407-2.195-11.167-2.994l6.732-31.708c4.869,1.033,9.738,2.338,14.47,3.88L519.278,45.693z M473.525,40.872
					l-3.318-32.244c4.885-0.503,9.86-0.758,14.793-0.758l0.117,32.416H485C481.172,40.286,477.311,40.483,473.525,40.872z"/>
			</g>
		</g>
		<g>
			<circle opacity="0.55" fill="#131519" cx="825.147" cy="150.933" r="97.797"/>
			<g opacity="0.55">
				<path fill="#464E54" d="M825.148,293.994c-78.884,0-143.062-64.177-143.062-143.062c0-78.884,64.178-143.062,143.062-143.062
					c78.885,0,143.061,64.178,143.061,143.062C968.209,229.817,904.033,293.994,825.148,293.994z M825.148,40.286
					c-61.012,0-110.646,49.636-110.646,110.646c0,61.01,49.635,110.646,110.646,110.646c61.01,0,110.645-49.637,110.645-110.646
					C935.793,89.922,886.158,40.286,825.148,40.286z"/>
			</g>
			<g>
				<path fill="#464E54" d="M825.148,293.994h-0.354v-32.417h0.354c3.762,0,7.557-0.188,11.273-0.563l3.259,32.25
					C834.883,293.746,829.996,293.994,825.148,293.994z M795.046,290.817c-4.871-1.045-9.735-2.356-14.461-3.905l10.088-30.805
					c3.648,1.194,7.406,2.209,11.165,3.015L795.046,290.817z M868.962,287.154l-9.92-30.858c3.659-1.179,7.297-2.562,10.811-4.116
					l13.114,29.645C878.416,283.838,873.702,285.63,868.962,287.154z M753.3,274.667c-4.293-2.497-8.509-5.253-12.529-8.194
					l19.138-26.162c3.107,2.272,6.366,4.404,9.685,6.333L753.3,274.667z M908.892,266.934l-18.994-26.271
					c3.122-2.258,6.154-4.699,9.017-7.264l21.629,24.142C916.846,260.854,912.923,264.014,908.892,266.934z M718.618,246.423
					c-3.32-3.704-6.481-7.621-9.393-11.637l26.248-19.021c2.258,3.112,4.706,6.147,7.279,9.021L718.618,246.423z M940.611,235.41
					l-26.146-19.154c2.275-3.108,4.41-6.367,6.347-9.688l28,16.33C946.311,227.189,943.551,231.401,940.611,235.41z
					 M694.309,208.867c-2.021-4.554-3.819-9.264-5.344-13.995l30.854-9.946c1.174,3.65,2.563,7.288,4.122,10.806L694.309,208.867z
					 M961.087,195.616l-30.799-10.11c1.196-3.646,2.216-7.403,3.026-11.169l31.688,6.829
					C963.953,186.035,962.635,190.897,961.087,195.616z M682.831,165.596c-0.494-4.839-0.744-9.771-0.744-14.663v-0.235h32.415
					v0.235c0,3.797,0.195,7.623,0.576,11.375L682.831,165.596z M968.209,151.4h-32.416v-0.468c0-3.862-0.199-7.758-0.596-11.58
					l32.24-3.343c0.512,4.928,0.771,9.95,0.771,14.923V151.4z M716.938,127.718l-31.705-6.751c1.035-4.865,2.346-9.734,3.895-14.473
					l30.812,10.063C718.747,120.214,717.734,123.969,716.938,127.718z M930.414,116.747c-1.188-3.663-2.583-7.295-4.145-10.793
					l29.604-13.206c2.022,4.539,3.832,9.247,5.372,13.995L930.414,116.747z M729.378,95.473L701.349,79.19
					c2.499-4.298,5.25-8.513,8.179-12.526l26.182,19.112C733.44,88.883,731.312,92.146,729.378,95.473z M914.699,85.931
					c-2.259-3.108-4.714-6.136-7.292-9.003L931.5,55.244c3.329,3.697,6.497,7.609,9.417,11.624L914.699,85.931z M751.22,68.606
					l-21.665-24.111c3.704-3.328,7.618-6.495,11.637-9.409l19.035,26.236C757.121,63.577,754.091,66.028,751.22,68.606z
					 M890.224,61.435c-3.119-2.272-6.382-4.397-9.698-6.317l16.242-28.052c4.291,2.483,8.511,5.232,12.54,8.168L890.224,61.435z
					 M780.255,49.768L767.09,20.146c4.55-2.022,9.258-3.825,13.991-5.355l9.978,30.84C787.403,46.814,783.771,48.206,780.255,49.768
					z M859.425,45.692c-3.65-1.188-7.407-2.196-11.167-2.994l6.732-31.708c4.869,1.034,9.738,2.338,14.47,3.88L859.425,45.692z
					 M813.672,40.872l-3.316-32.244c4.883-0.503,9.86-0.758,14.793-0.758l0.115,32.416h-0.115
					C821.321,40.286,817.457,40.483,813.672,40.872z"/>
			</g>
		</g>
		<g>
			<g>
				<g>
					<linearGradient id="SVGID_1_" gradientUnits="userSpaceOnUse" x1="759.1416" y1="150.9326" x2="891.1543" y2="150.9326">
						<stop  offset="0" style="stop-color:#63767C"/>
						<stop  offset="1" style="stop-color:#839DA5"/>
					</linearGradient>
					<circle fill="url(#SVGID_1_)" cx="825.148" cy="150.933" r="66.006"/>
					
						<ellipse transform="matrix(0.707 0.7072 -0.7072 0.707 320.1619 -555.1606)" opacity="0.21" fill="#464E54" cx="830.115" cy="108.829" rx="4.718" ry="4.788"/>
					
						<ellipse transform="matrix(0.7071 0.7071 -0.7071 0.7071 314.3426 -536.1605)" opacity="0.21" fill="#464E54" cx="804.391" cy="111.375" rx="9.359" ry="9.497"/>
					
						<ellipse transform="matrix(0.7071 0.7071 -0.7071 0.7071 329.9774 -543.3551)" opacity="0.21" fill="#464E54" cx="820.921" cy="126.667" rx="7.188" ry="7.294"/>
				</g>
			</g>
			<g>
				
					<ellipse transform="matrix(0.7071 0.7071 -0.7071 0.7071 337.1497 -516.1238)" fill="none" stroke="#B9D032" stroke-width="2" stroke-miterlimit="10" cx="791.574" cy="148.902" rx="17.273" ry="17.53"/>
				
					<ellipse transform="matrix(0.7071 0.7071 -0.7071 0.7071 337.1215 -516.1046)" fill="#B9D032" cx="791.574" cy="148.902" rx="7.777" ry="7.893"/>
			</g>
		</g>
	</g>
	<g>
		<g opacity="0.55">
			<polygon fill="#14171A" points="507.547,123.086 504.184,139.329 517.165,146.063 522.418,142.209 533.194,139.923 
				534.763,131.563 526.398,124.236 522.225,118.546 509.177,115.903 507.496,123.79 			"/>
			<polygon fill="#14171A" points="455.125,180.26 471.937,197.26 471.997,197.233 472.019,197.255 472.019,197.222 
				491.684,187.754 492.073,187.495 492.073,187.493 492.073,187.493 495.502,185.207 492.111,174.673 489.929,156.699 
				480.716,150.458 467.265,144.816 461.541,149.359 453.63,153.769 			"/>
			<polygon fill="#14171A" points="451.384,122.61 451.362,124.413 461.208,132.429 461.208,132.429 461.995,133.069 
				470.273,133.423 477.57,116.227 468.971,112.318 455.682,114.142 			"/>
			<polygon fill="#14171A" points="508.495,168.165 508.488,168.174 508.499,168.172 513.113,174.199 513.229,174.314 
				513.229,174.314 513.229,174.314 514.25,175.32 517.598,173.422 523.564,171.408 525.038,167.83 526.011,162.853 
				524.059,161.223 521.999,158.839 513.082,161.223 508.481,168.147 			"/>
			<polygon fill="#14171A" points="483.737,103.022 489.665,110.095 497.889,111.334 497.899,111.315 497.91,111.316 
				497.903,111.307 501.412,104.577 501.949,103.073 498.812,100.843 494.464,96.287 490.598,96.464 485.673,97.69 485.024,100.148 
							"/>
		</g>
		<g>
			<g>
				<polygon fill="#3B75A4" points="455.402,179.418 474.325,173.424 492.018,200.7 476.959,210.687 467.491,209.23 452.43,210.228 
					445.912,200.698 454.06,188.159 				"/>
				<polygon fill="#68A2CA" points="474.039,175.294 471.013,194.974 482.18,204.499 476.959,210.687 492.018,200.7 				"/>
				<polygon fill="#366D8C" points="471.013,194.974 454.06,188.159 455.402,179.418 474.325,173.424 486.688,192.24 
					474.208,177.837 				"/>
				<polygon fill="#68A2CA" points="466.395,199.696 467.923,207.48 463.592,207.933 				"/>
				<polygon fill="#1C5397" points="463.592,207.933 453.203,202.005 466.395,199.696 				"/>
			</g>
			<g>
				<polygon fill="#1C5397" points="461.505,101.263 466.1,88.13 481.281,88.215 493.846,99.436 492.272,104.967 491.743,109.577 
					483.17,113.081 476.232,114.417 467.185,107.326 460.934,104.12 				"/>
				<polygon fill="#366D8C" points="461.445,101.555 466.1,88.13 471.877,94.228 490.58,98.672 486.491,99.046 487.496,106.545 
					471.022,99.365 468.465,104.567 				"/>
				<polygon fill="#68A2CA" points="466.066,88.168 471.877,94.228 479.076,95.977 493.846,99.436 481.281,88.215 				"/>
				<polygon fill="#366D8C" points="484.515,95.25 476.755,90.858 478.427,90.611 480.439,91.609 479.83,90.339 487.066,94.989 
					486.895,95.996 				"/>
			</g>
			<g>
				<polygon fill="#1C5397" points="531.65,128.113 523.365,135.72 532.869,159.229 544.873,154.728 544.873,142.723 
					536.759,137.721 550.165,126.216 				"/>
				<polygon fill="#68A2CA" points="551.878,127.967 555.879,140.222 544.873,154.728 544.873,142.723 536.759,137.721 
					550.165,126.216 				"/>
				<path fill="#366D8C" d="M536.759,137.721l-10.226-1.501c0,0,9.338-4.668,8.755-4.835c-0.585-0.167-2.16-0.982-2.16-0.982
					l0.354-1.119l-0.461-1.312l17.144-1.756L536.759,137.721z"/>
			</g>
			<g>
				<polygon fill="#1C5397" points="430.12,135.536 440.376,136.899 442.607,147.964 436.333,158.808 432.069,158.498 
					428.633,158.808 424.786,153.097 422.768,148.246 426.564,140.586 427.953,135.551 				"/>
				<polygon fill="#366D8C" points="429.898,135.537 440.376,136.899 436.81,142.025 436.398,156.313 435.507,153.394 
					430.2,155.259 432.94,142.179 428.767,141.104 				"/>
				<polygon fill="#68A2CA" points="440.343,136.879 436.81,142.025 436.622,147.531 436.333,158.808 442.607,147.964 				"/>
				<polygon fill="#366D8C" points="437.973,151.382 440,145.069 440.432,146.249 440.009,147.863 440.842,147.229 438.549,153.201 
					437.789,153.228 				"/>
			</g>
			<g>
				<polygon fill="#1C5397" points="512.507,199.792 509.403,189.923 518.485,183.22 530.964,184.316 532.488,188.311 
					534.223,191.292 530.674,197.195 527.134,201.076 518.587,200.877 513.437,201.748 				"/>
				<polygon fill="#366D8C" points="512.602,199.993 509.403,189.923 515.557,190.986 528.68,185.313 526.409,187.354 
					530.344,191.376 517.334,194.427 518.124,198.664 				"/>
				<polygon fill="#68A2CA" points="509.398,189.958 515.557,190.986 520.625,188.824 530.964,184.316 518.485,183.22 				"/>
				<polygon fill="#366D8C" points="523.543,185.971 516.966,186.809 517.852,185.916 519.493,185.616 518.567,185.129 
					524.947,184.682 525.293,185.359 				"/>
			</g>
			<g>
				<polygon fill="#1C5397" points="469.046,158.13 463.098,139.211 480.507,126.362 504.428,128.466 507.348,136.123 
					510.672,141.839 503.871,153.154 497.086,160.593 480.705,160.21 470.831,161.88 				"/>
				<polygon fill="#366D8C" points="469.229,158.513 463.098,139.211 474.894,141.25 500.046,130.376 495.695,134.29 
					503.238,141.999 478.299,147.846 479.816,155.968 				"/>
				<polygon fill="#68A2CA" points="463.091,139.283 474.894,141.25 484.608,137.109 504.428,128.466 480.507,126.362 				"/>
				<polygon fill="#366D8C" points="490.199,131.639 477.595,133.241 479.292,131.532 482.439,130.957 480.663,130.026 
					492.895,129.166 493.555,130.463 				"/>
			</g>
		</g>
	</g>
	<g>
		<circle fill="#01AF8D" cx="341.939" cy="157.629" r="11.471"/>
		<circle fill="#01AF8D" cx="287.182" cy="157.629" r="11.473"/>
		<g>
			<g>
				
					<line fill="none" stroke="#01AF8D" stroke-width="2" stroke-linecap="round" stroke-miterlimit="10" x1="287.182" y1="157.629" x2="288.182" y2="157.629"/>
				
					<line fill="none" stroke="#01AF8D" stroke-width="2" stroke-linecap="round" stroke-miterlimit="10" stroke-dasharray="2.0292,4.0583" x1="292.24" y1="157.629" x2="338.911" y2="157.629"/>
				
					<line fill="none" stroke="#01AF8D" stroke-width="2" stroke-linecap="round" stroke-miterlimit="10" x1="340.94" y1="157.629" x2="341.94" y2="157.629"/>
			</g>
		</g>
	</g>
	<g>
		<circle fill="#01AF8D" cx="681.938" cy="157.629" r="11.472"/>
		<circle fill="#01AF8D" cx="627.179" cy="157.629" r="11.472"/>
		<g>
			<g>
				
					<line fill="none" stroke="#01AF8D" stroke-width="2" stroke-linecap="round" stroke-miterlimit="10" x1="627.18" y1="157.629" x2="628.18" y2="157.629"/>
				
					<line fill="none" stroke="#01AF8D" stroke-width="2" stroke-linecap="round" stroke-miterlimit="10" stroke-dasharray="2.0291,4.0582" x1="632.238" y1="157.629" x2="678.907" y2="157.629"/>
				
					<line fill="none" stroke="#01AF8D" stroke-width="2" stroke-linecap="round" stroke-miterlimit="10" x1="680.937" y1="157.629" x2="681.937" y2="157.629"/>
			</g>
		</g>
	</g>
</g>
</svg>
