<?xml version="1.0" encoding="utf-8"?>
<!-- Generator: Adobe Illustrator 16.0.0, SVG Export Plug-In . SVG Version: 6.00 Build 0)  -->
<!DOCTYPE svg PUBLIC "-//W3C//DTD SVG 1.1//EN" "http://www.w3.org/Graphics/SVG/1.1/DTD/svg11.dtd">
<svg version="1.1" id="Layer_1" xmlns="http://www.w3.org/2000/svg" xmlns:xlink="http://www.w3.org/1999/xlink" x="0px" y="0px"
	 width="970px" height="273.942px" viewBox="0 0 970 273.942" enable-background="new 0 0 970 273.942" xml:space="preserve">
<g>
	<path opacity="0.55" fill="#14171A" d="M273.042,116.924c-0.496,0-0.98,0.04-1.466,0.074C261.904,50.821,204.931,0,136.069,0
		C60.423,0-0.901,61.324-0.901,136.97c0,75.646,61.324,136.972,136.97,136.972c68.862,0,125.835-50.82,135.506-116.998
		c0.486,0.033,0.971,0.072,1.466,0.072c11.07,0,20.045-8.976,20.045-20.046S284.111,116.924,273.042,116.924z"/>
	<path opacity="0.35" fill="#14171A" d="M624.161,116.924c-0.495,0-0.979,0.04-1.464,0.074C613.024,50.821,556.051,0,487.189,0
		c-68.86,0-125.834,50.821-135.505,116.998c-0.485-0.034-0.97-0.074-1.465-0.074c-11.071,0-20.046,8.976-20.046,20.046
		s8.976,20.046,20.046,20.046c0.495,0,0.98-0.039,1.465-0.072c9.671,66.178,66.645,116.998,135.505,116.998
		c68.861,0,125.835-50.82,135.508-116.998c0.485,0.033,0.969,0.072,1.464,0.072c11.071,0,20.047-8.976,20.047-20.046
		S635.232,116.924,624.161,116.924z"/>
	<g>
		<g>
			<g>
				
					<circle fill="none" stroke="#B9D032" stroke-width="3.0784" stroke-miterlimit="10" stroke-dasharray="12.2256,12.2256" cx="136.07" cy="136.97" r="89.501"/>
			</g>
			<circle fill="#B9D032" cx="136.07" cy="136.97" r="76.663"/>
		</g>
		<linearGradient id="SVGID_1_" gradientUnits="userSpaceOnUse" x1="103.2437" y1="136.4209" x2="181.686" y2="136.4209">
			<stop  offset="0" style="stop-color:#16191D"/>
			<stop  offset="1" style="stop-color:#163A4A"/>
		</linearGradient>
		<path fill="url(#SVGID_1_)" d="M119.481,182.622l20.28-8.451v-2.535l-9.682-1.433l0.423-0.395l18.46-0.993h-19.341l-1.481,1.1
			l-4.576-0.674l16.479-16.479l3.663,4.13h1.314l3.379-4.13h2.912l2.817-5.914l0,0v-0.002v0.002l6.274-0.897l1.94,1.445h19.342
			l-18.46-0.994l-0.791-0.742l5.497-0.785l12.394-6.197h-0.001h0.001v-2.254v-2.253l-12.394-6.197l-5.504-0.787l0.798-0.749
			l18.46-0.994h-19.342l-1.951,1.453l-6.264-0.895l-2.817-5.916h-2.935l-1.678-2.051l0.012-0.003l-0.49-0.6h-0.015l-1.185-1.45
			h-1.314l-1.284,1.45h-0.014l-0.533,0.6l0.012,0.003l-1.818,2.051h-0.025l-13.064-13.066l-3.415-3.42l4.566-0.675l1.491,1.109
			h19.341l-18.46-0.993l-0.43-0.403l9.688-1.432V98.67l-20.28-8.451l-1.813,0.974l0,0l-13.398,7.195l-1.026,6.206l1.026,6.47
			l3.381,3.38h5.069l4.256-4.256v0.008l-3.044,3.044l-1.212,1.204l0.004,0.004l-0.004,0.004l4.285,4.285l0.039,11.583l-5.45,6.104
			v0.001l0,0l0,0l0.635,0.71l0,0l4.855,5.439l0.038,11.423l-4.401,4.399h-5.069l-3.381,3.382l-1.026,6.47l1.026,6.203l13.398,7.194
			l0,0L119.481,182.622z M118.174,108.991l5.011-5.011l0.004,0.003l-5.011,5.013L118.174,108.991z"/>
	</g>
	<g>
		<g opacity="0.55">
			<polygon fill="#14171A" points="509.98,111.379 506.459,128.378 520.043,135.424 525.54,131.393 536.816,129 538.46,120.251 
				529.706,112.583 525.338,106.629 511.684,103.863 509.926,112.116 			"/>
			<polygon fill="#14171A" points="455.118,171.215 472.712,189.004 472.774,188.977 472.797,189 472.797,188.965 493.376,179.054 
				493.785,178.784 493.785,178.784 493.785,178.784 497.373,176.389 493.82,165.368 491.542,146.558 481.898,140.025 
				467.822,134.12 461.831,138.874 453.553,143.488 			"/>
			<polygon fill="#14171A" points="451.202,110.881 451.18,112.769 461.484,121.157 461.484,121.157 462.308,121.827 
				470.971,122.197 478.606,104.2 469.608,100.111 455.701,102.02 			"/>
			<polygon fill="#14171A" points="510.969,158.555 510.961,158.564 510.975,158.563 515.803,164.871 515.926,164.989 
				515.926,164.989 515.926,164.989 516.992,166.042 520.496,164.058 526.74,161.95 528.284,158.205 529.298,152.992 
				527.257,151.291 525.103,148.797 515.771,151.289 510.955,158.537 			"/>
			<polygon fill="#14171A" points="485.062,90.384 491.267,97.786 499.871,99.081 499.882,99.062 499.894,99.063 499.886,99.053 
				503.561,92.009 504.116,90.435 500.836,88.102 496.287,83.334 492.241,83.521 487.087,84.802 486.406,87.375 			"/>
		</g>
		<g>
			<g>
				<polygon fill="#3B75A4" points="455.41,170.335 475.211,164.058 493.728,192.604 477.967,203.057 468.06,201.532 
					452.296,202.573 445.477,192.602 454.003,179.478 				"/>
				<polygon fill="#68A2CA" points="474.91,166.017 471.746,186.609 483.43,196.581 477.967,203.057 493.728,192.604 				"/>
				<polygon fill="#366D8C" points="471.746,186.609 454.003,179.478 455.41,170.335 475.211,164.058 488.15,183.75 
					475.089,168.678 				"/>
				<polygon fill="#68A2CA" points="466.911,191.557 468.511,199.698 463.978,200.174 				"/>
				<polygon fill="#1C5397" points="463.978,200.174 453.107,193.969 466.911,191.557 				"/>
			</g>
			<g>
				<polygon fill="#1C5397" points="461.794,88.541 466.604,74.797 482.49,74.887 495.639,86.63 493.993,92.418 493.438,97.241 
					484.467,100.91 477.208,102.306 467.737,94.886 461.196,91.531 				"/>
				<polygon fill="#366D8C" points="461.733,88.847 466.604,74.797 472.648,81.179 492.222,85.83 487.943,86.222 488.994,94.069 
					471.754,86.555 469.08,92 				"/>
				<polygon fill="#68A2CA" points="466.569,74.838 472.648,81.179 480.182,83.012 495.639,86.63 482.49,74.887 				"/>
				<polygon fill="#366D8C" points="485.875,82.248 477.755,77.654 479.504,77.394 481.608,78.438 480.972,77.111 488.545,81.976 
					488.364,83.029 				"/>
			</g>
			<g>
				<polygon fill="#1C5397" points="535.205,116.641 526.534,124.602 536.479,149.203 549.042,144.493 549.042,131.929 
					540.55,126.695 554.579,114.655 				"/>
				<polygon fill="#68A2CA" points="556.372,116.488 560.558,129.313 549.042,144.493 549.042,131.929 540.55,126.695 
					554.579,114.655 				"/>
				<path fill="#366D8C" d="M540.55,126.695l-10.704-1.57c0,0,9.771-4.887,9.162-5.061c-0.61-0.174-2.259-1.027-2.259-1.027
					l0.373-1.171l-0.486-1.371l17.943-1.839L540.55,126.695z"/>
			</g>
			<g>
				<polygon fill="#1C5397" points="428.952,124.408 439.684,125.835 442.018,137.415 435.453,148.762 430.989,148.439 
					427.394,148.762 423.368,142.785 421.254,137.71 425.229,129.694 426.683,124.425 				"/>
				<polygon fill="#366D8C" points="428.718,124.409 439.684,125.835 435.95,131.2 435.52,146.153 434.588,143.099 429.032,145.046 
					431.901,131.361 427.532,130.234 				"/>
				<polygon fill="#68A2CA" points="439.649,125.814 435.95,131.2 435.755,136.961 435.453,148.762 442.018,137.415 				"/>
				<polygon fill="#366D8C" points="437.169,140.993 439.288,134.385 439.741,135.619 439.299,137.31 440.169,136.646 
					437.77,142.896 436.976,142.921 				"/>
			</g>
			<g>
				<polygon fill="#1C5397" points="515.168,191.653 511.921,181.324 521.426,174.311 534.486,175.457 536.079,179.639 
					537.893,182.758 534.182,188.937 530.478,192.997 521.533,192.79 516.143,193.7 				"/>
				<polygon fill="#366D8C" points="515.268,191.863 511.921,181.324 518.363,182.438 532.093,176.502 529.72,178.638 
					533.835,182.847 520.22,186.038 521.047,190.473 				"/>
				<polygon fill="#68A2CA" points="511.919,181.365 518.363,182.438 523.666,180.177 534.486,175.457 521.426,174.311 				"/>
				<polygon fill="#366D8C" points="526.717,177.189 519.833,178.063 520.762,177.133 522.479,176.818 521.512,176.312 
					528.188,175.839 528.549,176.548 				"/>
			</g>
			<g>
				<polygon fill="#1C5397" points="469.687,148.053 463.461,128.255 481.682,114.809 506.713,117.01 509.772,125.022 
					513.247,131.005 506.133,142.846 499.029,150.628 481.887,150.232 471.554,151.977 				"/>
				<polygon fill="#366D8C" points="469.879,148.455 463.461,128.255 475.807,130.388 502.128,119.009 497.577,123.105 
					505.469,131.172 479.37,137.291 480.958,145.788 				"/>
				<polygon fill="#68A2CA" points="463.455,128.33 475.807,130.388 485.973,126.056 506.713,117.01 481.682,114.809 				"/>
				<polygon fill="#366D8C" points="491.824,120.332 478.631,122.008 480.41,120.22 483.703,119.617 481.844,118.643 
					494.644,117.744 495.337,119.1 				"/>
			</g>
		</g>
	</g>
	<path opacity="0.35" fill="#14171A" d="M835.932,0c-68.86,0-125.836,50.821-135.504,116.998c-0.486-0.034-0.972-0.074-1.467-0.074
		c-11.073,0-20.05,8.976-20.05,20.046s8.977,20.046,20.05,20.046c0.495,0,0.98-0.039,1.467-0.072
		c9.668,66.178,66.644,116.998,135.504,116.998c75.646,0,136.972-61.326,136.972-136.972C972.903,61.324,911.577,0,835.932,0z"/>
	<path fill="#01AF8D" d="M710.967,136.97c0,6.633-5.377,12.005-12.006,12.005s-12.005-5.372-12.005-12.005
		c0-6.63,5.376-12.005,12.005-12.005S710.967,130.34,710.967,136.97z"/>
	<path fill="#01AF8D" d="M637.198,136.97c0,6.633-5.376,12.005-12.005,12.005c-6.632,0-12.008-5.372-12.008-12.005
		c0-6.63,5.376-12.005,12.008-12.005C631.822,124.965,637.198,130.34,637.198,136.97z"/>
	<path fill="#01AF8D" d="M361.353,136.97c0,6.633-5.376,12.005-12.005,12.005c-6.632,0-12.006-5.372-12.006-12.005
		c0-6.63,5.375-12.005,12.006-12.005C355.976,124.965,361.353,130.34,361.353,136.97z"/>
	<path fill="#01AF8D" d="M286.106,136.97c0,6.633-5.375,12.005-12.005,12.005c-6.63,0-12.005-5.372-12.005-12.005
		c0-6.63,5.375-12.005,12.005-12.005C280.731,124.965,286.106,130.34,286.106,136.97z"/>
	<g>
		<g>
			<g>
				<linearGradient id="SVGID_2_" gradientUnits="userSpaceOnUse" x1="760.1465" y1="138.6123" x2="911.4434" y2="138.6123">
					<stop  offset="0" style="stop-color:#63777D"/>
					<stop  offset="1" style="stop-color:#819CA4"/>
				</linearGradient>
				<path fill="url(#SVGID_2_)" d="M911.443,138.615c0,41.778-33.867,75.645-75.648,75.645c-41.78,0-75.648-33.866-75.648-75.645
					c0-41.78,33.868-75.649,75.648-75.649C877.576,62.966,911.443,96.835,911.443,138.615z"/>
				
					<ellipse transform="matrix(0.7072 0.707 -0.707 0.7072 310.2983 -568.5057)" opacity="0.21" fill="#464E55" cx="841.489" cy="90.361" rx="5.409" ry="5.489"/>
				<path opacity="0.21" fill="#464E55" d="M819.591,100.862c-4.252,4.251-11.093,4.301-15.282,0.113
					c-4.191-4.188-4.139-11.03,0.113-15.282c4.251-4.25,11.094-4.302,15.283-0.113C823.891,89.77,823.841,96.61,819.591,100.862z"/>
				
					<ellipse transform="matrix(0.707 0.7072 -0.7072 0.707 321.801 -555.1712)" opacity="0.21" fill="#464E55" cx="830.952" cy="110.805" rx="8.238" ry="8.36"/>
			</g>
		</g>
		<g>
			
				<ellipse transform="matrix(0.7071 0.7071 -0.7071 0.7071 329.9161 -523.8839)" fill="none" stroke="#B8CE33" stroke-width="2" stroke-miterlimit="10" cx="797.318" cy="136.287" rx="19.794" ry="20.091"/>
			
				<ellipse transform="matrix(0.7071 0.7071 -0.7071 0.7071 329.9114 -523.8791)" fill="#B8CE33" cx="797.316" cy="136.288" rx="8.914" ry="9.047"/>
		</g>
	</g>
	<g>
		<g>
			
				<line fill="none" stroke="#01AF8D" stroke-width="2" stroke-linecap="round" stroke-miterlimit="10" x1="274.101" y1="136.97" x2="275.101" y2="136.97"/>
			
				<line fill="none" stroke="#01AF8D" stroke-width="2" stroke-linecap="round" stroke-miterlimit="10" stroke-dasharray="1.9275,3.8551" x1="278.956" y1="136.97" x2="346.419" y2="136.97"/>
			
				<line fill="none" stroke="#01AF8D" stroke-width="2" stroke-linecap="round" stroke-miterlimit="10" x1="348.347" y1="136.97" x2="349.347" y2="136.97"/>
		</g>
	</g>
	<g>
		<g>
			
				<line fill="none" stroke="#01AF8D" stroke-width="2" stroke-linecap="round" stroke-miterlimit="10" x1="624.49" y1="136.97" x2="625.49" y2="136.97"/>
			
				<line fill="none" stroke="#01AF8D" stroke-width="2" stroke-linecap="round" stroke-miterlimit="10" stroke-dasharray="1.9276,3.8553" x1="629.346" y1="136.97" x2="696.813" y2="136.97"/>
			
				<line fill="none" stroke="#01AF8D" stroke-width="2" stroke-linecap="round" stroke-miterlimit="10" x1="698.74" y1="136.97" x2="699.74" y2="136.97"/>
		</g>
	</g>
</g>
</svg>
