<?xml version="1.0" encoding="utf-8"?>
<!-- Generator: Adobe Illustrator 16.0.0, SVG Export Plug-In . SVG Version: 6.00 Build 0)  -->
<!DOCTYPE svg PUBLIC "-//W3C//DTD SVG 1.1//EN" "http://www.w3.org/Graphics/SVG/1.1/DTD/svg11.dtd">
<svg version="1.1" id="Layer_1" xmlns="http://www.w3.org/2000/svg" xmlns:xlink="http://www.w3.org/1999/xlink" x="0px" y="0px"
	 width="595.28px" height="841.89px" viewBox="0 0 595.28 841.89" enable-background="new 0 0 595.28 841.89" xml:space="preserve">
<g>
	<g>
		<path fill="#FFFFFF" d="M297.396,378.388c23.401,0,42.44,19.039,42.44,42.44s-19.039,42.44-42.44,42.44
			c-23.402,0-42.44-19.038-42.44-42.44S273.995,378.388,297.396,378.388 M297.396,372.866c-26.489,0-47.963,21.474-47.963,47.963
			c0,26.49,21.474,47.962,47.963,47.962s47.963-21.473,47.963-47.962C345.359,394.339,323.886,372.866,297.396,372.866
			L297.396,372.866z"/>
	</g>
	<g>
		<path fill="#FFFFFF" d="M283.446,425.41l-2.324,7.656h-5.09l8.657-27.018h6.296l8.777,27.018h-5.291l-2.446-7.656H283.446z
			 M291.185,421.683l-2.124-6.654c-0.522-1.644-0.962-3.489-1.363-5.051h-0.082c-0.399,1.563-0.801,3.447-1.281,5.051l-2.085,6.654
			H291.185z"/>
		<path fill="#FFFFFF" d="M314.312,433.066l-0.32-2.164h-0.12c-1.204,1.523-3.247,2.605-5.773,2.605
			c-3.928,0-6.133-2.846-6.133-5.813c0-4.93,4.369-7.416,11.585-7.376v-0.32c0-1.283-0.521-3.407-3.968-3.407
			c-1.925,0-3.93,0.601-5.252,1.442l-0.963-3.207c1.444-0.882,3.971-1.724,7.056-1.724c6.253,0,8.058,3.969,8.058,8.217v7.056
			c0,1.764,0.081,3.487,0.28,4.689H314.312z M313.671,423.526c-3.489-0.081-6.816,0.681-6.816,3.647
			c0,1.926,1.243,2.807,2.807,2.807c1.965,0,3.407-1.283,3.848-2.686c0.121-0.361,0.162-0.762,0.162-1.083V423.526z"/>
	</g>
</g>
</svg>
